<svg xmlns="http://www.w3.org/2000/svg" xmlns:xlink="http://www.w3.org/1999/xlink" id="Layer_1" x="0" y="0" version="1.1" viewBox="0 0 591 187.5" xml:space="preserve" style="enable-background:new 0 0 591 187.5"><style type="text/css">.st7{clip-path:url(#SVGID_2_)}.st8{clip-path:url(#SVGID_4_);fill:#34a0b3}.st9{clip-path:url(#SVGID_6_);fill:url(#SVGID_7_)}.st10{clip-path:url(#SVGID_9_);fill:url(#SVGID_10_)}.st11{clip-path:url(#SVGID_12_);fill:url(#SVGID_13_)}.st12{clip-path:url(#SVGID_15_);fill:url(#SVGID_16_)}.st13{clip-path:url(#SVGID_18_);fill:url(#SVGID_19_)}</style><g><g><defs><rect id="SVGID_1_" width="1280" height="800" x="-344.5" y="-303.6"/></defs><clipPath id="SVGID_2_"><use xlink:href="#SVGID_1_" style="overflow:visible"/></clipPath><g class="st7"><defs><rect id="SVGID_3_" width="1280" height="800" x="-344.5" y="-303.6"/></defs><clipPath id="SVGID_4_"><use xlink:href="#SVGID_3_" style="overflow:visible"/></clipPath><path d="M515.8,93.4c0-13.5,10.9-24.4,24.4-24.4c13.4,0,24.4,11,24.4,24.4c0,13.5-10.9,24.4-24.4,24.4 C526.7,117.8,515.8,106.9,515.8,93.4 M501,93.4c0,21.7,17.6,39.3,39.2,39.3c21.6,0,39.2-17.6,39.2-39.3 c0-21.7-17.6-39.3-39.2-39.3C518.5,54.1,501,71.7,501,93.4" class="st8"/><path d="M467.1,33.8v20.7h-13v14.9h13v21.4l0.2,6.7c1.5,16.6,13.4,30.2,29,34.3l0-15.7c-8.5-3.8-14.3-12.4-14.3-22.3 V69.4h14.2V54.5H482V42.2l-8.9-8.5H467.1z" class="st8"/><path d="M391.4,81.7c3.1-5.7,8.3-9.9,14.5-11.7c6.2-1.8,12.8-1.1,18.5,2c2.7,1.5,5,3.4,7,5.7l-42.8,12.6 C389,87.3,389.9,84.4,391.4,81.7 M401.8,55.7c-10,3-18.3,9.7-23.4,18.9c-5,9.2-6.2,19.8-3.2,29.9c5,17.1,20.7,28.2,37.6,28.2 c3.6,0,7.3-0.5,11-1.6c12.5-3.7,22.4-13.3,26.3-25.8l-14.1-4.5c-2.5,7.8-8.6,13.8-16.4,16c-11.2,3.3-23-1.9-28.3-11.9l57.2-16.8 l3-0.9c-0.3-1.4-0.8-3.7-1.2-4.9c-2.9-10.1-9.6-18.4-18.8-23.4c-5.8-3.2-12.3-4.8-18.7-4.8C409.1,54.1,405.4,54.6,401.8,55.7" class="st8"/><path d="M346.7,62.6l-8.9-8.6h-6v78.6h14.8V93.4c0-13.5,10.9-24.4,24.4-24.4V54.1C361.8,54.1,353.3,57.3,346.7,62.6" class="st8"/><path d="M258.1,93.4c0-13.5,10.9-24.4,24.4-24.4c13.4,0,24.4,11,24.4,24.4c0,13.5-10.9,24.4-24.4,24.4 C269,117.8,258.1,106.9,258.1,93.4 M243.3,93.4c0,21.7,17.6,39.3,39.2,39.3c21.6,0,39.2-17.6,39.2-39.3 c0-21.7-17.6-39.3-39.2-39.3C260.9,54.1,243.3,71.7,243.3,93.4" class="st8"/><path d="M172.1,93.4c0-13.5,10.9-24.4,24.4-24.4c13.4,0,24.4,11,24.4,24.4c0,13.5-10.9,24.4-24.4,24.4 C183,117.8,172.1,106.9,172.1,93.4 M168.1,66.3l-8.8-8.4h-5.8v61.4v31.2h14.9v-29.7c7.1,7.4,17.1,12,28.1,12 c21.6,0,39.2-17.6,39.2-39.3s-17.6-39.3-39.2-39.3C185.3,54.1,175.2,58.8,168.1,66.3" class="st8"/></g><g class="st7"><defs><polygon id="SVGID_5_" points="119.5 150.4 143.5 150.4 74.5 31.1"/></defs><clipPath id="SVGID_6_"><use xlink:href="#SVGID_5_" style="overflow:visible"/></clipPath><linearGradient id="SVGID_7_" x1="-1798.326" x2="-1797.326" y1="1599.428" y2="1599.428" gradientTransform="matrix(-27.925 -89.298 -89.298 27.925 92734.9609 -205100.9219)" gradientUnits="userSpaceOnUse"><stop offset="0" style="stop-color:#5ac2cc"/><stop offset=".004" style="stop-color:#59c1cc"/><stop offset=".118" style="stop-color:#48b2c0"/><stop offset=".259" style="stop-color:#3da8b9"/><stop offset=".456" style="stop-color:#36a2b4"/><stop offset="1" style="stop-color:#34a0b3"/></linearGradient><polygon points="80.6 170 40.5 41.8 137.3 11.5 177.4 139.8" class="st9"/></g><g class="st7"><defs><polygon id="SVGID_8_" points="10.4 142.9 21.8 161.6 90.8 140 80.1 121.7"/></defs><clipPath id="SVGID_9_"><use xlink:href="#SVGID_8_" style="overflow:visible"/></clipPath><linearGradient id="SVGID_10_" x1="-1783.295" x2="-1782.295" y1="1624.886" y2="1624.886" gradientTransform="matrix(75.6642 -27.1875 -27.1875 -75.6642 179128.0625 74615.0859)" gradientUnits="userSpaceOnUse"><stop offset="0" style="stop-color:#5ac2cc"/><stop offset=".004" style="stop-color:#59c1cc"/><stop offset=".118" style="stop-color:#48b2c0"/><stop offset=".259" style="stop-color:#3da8b9"/><stop offset=".456" style="stop-color:#36a2b4"/><stop offset="1" style="stop-color:#34a0b3"/></linearGradient><polygon points="-2.3 126.2 81.6 96.1 103.5 157 19.6 187.1" class="st10"/></g><g class="st7"><defs><polygon id="SVGID_11_" points="10.4 143.1 39.2 134.1 74.5 73.6 74.5 31.3"/></defs><clipPath id="SVGID_12_"><use xlink:href="#SVGID_11_" style="overflow:visible"/></clipPath><linearGradient id="SVGID_13_" x1="-1815.401" x2="-1814.401" y1="1621.287" y2="1621.287" gradientTransform="matrix(-94.9127 140.6558 140.6558 94.9127 -400296.7812 101539.9688)" gradientUnits="userSpaceOnUse"><stop offset="0" style="stop-color:#1c6266"/><stop offset=".116" style="stop-color:#227178"/><stop offset=".322" style="stop-color:#2a8592"/><stop offset=".535" style="stop-color:#2f94a4"/><stop offset=".756" style="stop-color:#339daf"/><stop offset="1" style="stop-color:#34a0b3"/></linearGradient><polygon points="126.3 66.3 54.4 172.8 -41.4 108.1 30.5 1.7" class="st11"/></g><g class="st7"><defs><polygon id="SVGID_14_" points="74.5 73.6 119.5 150.6 74.5 31.3"/></defs><clipPath id="SVGID_15_"><use xlink:href="#SVGID_14_" style="overflow:visible"/></clipPath><linearGradient id="SVGID_16_" x1="-1805.817" x2="-1804.817" y1="1626.005" y2="1626.005" gradientTransform="matrix(121.7149 190.9521 190.9521 -121.7149 -90609.7031 542805.3125)" gradientUnits="userSpaceOnUse"><stop offset="0" style="stop-color:#1c6266"/><stop offset=".052" style="stop-color:#227078"/><stop offset=".136" style="stop-color:#28828e"/><stop offset=".234" style="stop-color:#2e8f9e"/><stop offset=".357" style="stop-color:#3199aa"/><stop offset=".528" style="stop-color:#339eb1"/><stop offset="1" style="stop-color:#34a0b3"/></linearGradient><polygon points="106.5 10.9 173.5 116.1 87.5 171 20.4 65.8" class="st12"/></g><g class="st7"><defs><polygon id="SVGID_17_" points="21.8 161.6 90.8 140 80.1 121.7"/></defs><clipPath id="SVGID_18_"><use xlink:href="#SVGID_17_" style="overflow:visible"/></clipPath><linearGradient id="SVGID_19_" x1="-1824.267" x2="-1823.267" y1="1612.613" y2="1612.613" gradientTransform="matrix(-85.8439 34.875 34.875 85.8439 -212754.6094 -74682.7344)" gradientUnits="userSpaceOnUse"><stop offset="0" style="stop-color:#1c6266"/><stop offset=".116" style="stop-color:#227178"/><stop offset=".322" style="stop-color:#2a8592"/><stop offset=".535" style="stop-color:#2f94a4"/><stop offset=".756" style="stop-color:#339daf"/><stop offset="1" style="stop-color:#34a0b3"/></linearGradient><polygon points="104.7 155.9 31.6 185.6 7.9 127.3 81 97.6" class="st13"/></g></g></g></svg>