<svg xmlns="http://www.w3.org/2000/svg" width="580" height="400"><g><title>Layer 1</title><rect id="svg_1" width="317" height="121" x="125.5" y="159.438" fill="#fff"/><path id="svg_2" fill="#007f00" stroke="#000" stroke-width="1.5" d="m216.417504,222.495306l0,0c0,-18.777679 33.130934,-33.999999 74.000003,-33.999999l0,0c19.626013,0 38.448211,3.58213 52.325894,9.958367c13.877697,6.376239 21.674109,15.024269 21.674109,24.041632l0,0c0,18.777677 -33.130934,33.999999 -74.000003,33.999999l0,0c-40.869064,0 -74.000003,-15.222322 -74.000003,-33.999999zm37.000002,0l0,0c0,9.388837 16.565477,17 37.000002,17c20.43454,0 37.000002,-7.611162 37.000002,-17c0,-9.388837 -16.565472,-17 -37.000002,-17l0,0c-20.434525,0 -37.000002,7.611165 -37.000002,17z"/></g></svg>